<svg width="157.0734375" height="157.0734375" viewBox="0 0 324 324" class="looka-1j8o68f"><defs id="SvgjsDefs1643"></defs><g id="SvgjsG1644" featurekey="rootContainer" transform="matrix(1.6158956605277792,0,0,1.6158956605277792,0,0)" fill="#04946d"><path xmlns="http://www.w3.org/2000/svg" d="M100.254 0C44.974 0 0 44.974 0 100.254s44.974 100.254 100.254 100.254c55.28 0 100.254-44.974 100.254-100.254S155.534 0 100.254 0zm0 195.508C47.731 195.508 5 152.777 5 100.254S47.731 5 100.254 5s95.254 42.73 95.254 95.254-42.731 95.254-95.254 95.254z"></path></g><g id="SvgjsG1645" featurekey="symbolFeature-0" transform="matrix(1.7196166902082102,0,0,1.7196166902082102,75.98134158427126,15.093672384039245)" fill="#04946d"><path xmlns="http://www.w3.org/2000/svg" d="M31.174,55.67c-1.393-0.057-2.555,0.988-2.626,2.367c-0.225,4.316-0.603,7.659-1.005,10.079  C26.9,64.253,26.333,58.153,26.333,50s0.567-14.253,1.208-18.116c0.403,2.42,0.781,5.763,1.005,10.08  c0.071,1.378,1.233,2.441,2.626,2.367c1.379-0.072,2.438-1.248,2.367-2.626c-0.94-18.083-3.926-18.989-5.724-19.034  c-0.144-0.026-0.291-0.044-0.442-0.044h-8.833c-0.312,0-0.607,0.064-0.883,0.168c-1.868,0.522-2.913,2.755-3.639,6.082H9.708  c-0.284,0-0.552,0.058-0.807,0.145C4.228,30.28,3.5,42.531,3.5,49.995c0,7.029,0.646,18.302,4.625,20.646  c0.03,0.021,0.063,0.037,0.094,0.057c0.042,0.022,0.085,0.048,0.128,0.069c0.356,0.195,0.759,0.316,1.194,0.316h4.469  c0.678,3.124,1.634,5.29,3.281,5.993c0.061,0.03,0.122,0.059,0.186,0.084c0.001,0,0.002,0,0.004,0.001  c0.278,0.106,0.578,0.172,0.894,0.172h9c0.025,0,0.048-0.007,0.073-0.008c0.032,0.001,0.062,0.008,0.094,0.008  c1.75,0,5.009,0,5.999-19.036C33.612,56.918,32.553,55.742,31.174,55.67z M13.197,66.083h-2.668C9.714,64.437,8.5,58.861,8.5,49.995  c0-8.924,1.23-14.515,2.044-16.12h2.658C12.64,38.42,12.333,44.06,12.333,50C12.333,55.922,12.638,61.546,13.197,66.083z   M22.447,67.929c0.246,1.646,0.523,3.125,0.866,4.404h-3.76C18.66,70.131,17.333,62.477,17.333,50  c0-12.56,1.344-20.231,2.237-22.375h3.753c-0.348,1.288-0.628,2.782-0.876,4.446C21.729,36.879,21.333,43.247,21.333,50  C21.333,56.753,21.729,63.12,22.447,67.929z"></path><path xmlns="http://www.w3.org/2000/svg" d="M91.144,29.02c-0.255-0.087-0.523-0.145-0.808-0.145h-4.312c-0.727-3.327-1.771-5.56-3.64-6.082  c-0.275-0.104-0.571-0.168-0.883-0.168h-8.833c-0.151,0-0.298,0.019-0.442,0.044c-1.797,0.045-4.784,0.951-5.724,19.034  c-0.071,1.379,0.988,2.555,2.367,2.626c1.365,0.069,2.556-0.988,2.627-2.367c0.224-4.317,0.602-7.662,1.005-10.082  c0.642,3.863,1.209,9.964,1.209,18.119c0,8.154-0.567,14.255-1.209,18.118c-0.403-2.42-0.781-5.764-1.005-10.081  c-0.071-1.379-1.262-2.428-2.627-2.367c-1.379,0.072-2.438,1.248-2.367,2.627c0.989,19.036,4.248,19.036,5.999,19.036  c0.032,0,0.062-0.007,0.094-0.008c0.024,0.001,0.048,0.008,0.073,0.008h9c0.316,0,0.615-0.064,0.894-0.172  c0.002,0,0.003-0.001,0.005-0.001c0.063-0.025,0.124-0.054,0.185-0.083c1.647-0.704,2.604-2.869,3.281-5.994h4.469  c0.434,0,0.836-0.12,1.191-0.315c0.048-0.022,0.094-0.05,0.14-0.075c0.028-0.018,0.057-0.032,0.084-0.051  c3.981-2.339,4.627-13.615,4.627-20.646C96.544,42.531,95.816,30.281,91.144,29.02z M80.492,72.333h-3.761  c0.343-1.279,0.62-2.759,0.866-4.404C78.315,63.12,78.711,56.753,78.711,50c0-6.753-0.396-13.121-1.113-17.929  c-0.249-1.664-0.529-3.158-0.877-4.446h3.754c0.893,2.143,2.236,9.814,2.236,22.375C82.711,62.478,81.385,70.131,80.492,72.333z   M89.516,66.083h-2.668c0.559-4.537,0.863-10.161,0.863-16.083c0-5.94-0.307-11.58-0.869-16.125H89.5  c0.814,1.605,2.044,7.196,2.044,16.12C91.544,58.861,90.33,64.437,89.516,66.083z"></path><path xmlns="http://www.w3.org/2000/svg" d="M28,50.083c0,1.933,1.567,3.5,3.5,3.5h36.833c1.933,0,3.5-1.567,3.5-3.5s-1.567-3.5-3.5-3.5H31.5  C29.567,46.583,28,48.15,28,50.083z"></path></g><g id="SvgjsG1646" featurekey="nameFeature-0" transform="matrix(1.2271120690018358,0,0,1.2271120690018358,57.04246728804319,155.09078281290388)" fill="#04946d"><path d="M7.12 13.719999999999999 l0 10.48 l13.72 0 l0 2.8 l-13.72 0 l0 13 l-3.08 0 l0 -29.16 l18.08 0 l0 2.88 l-15 0 z M28.644 40 l0 -29.16 l3.08 0 l0 29.16 l-3.08 0 z M50.328 13.719999999999999 l0 26.28 l-3.04 0 l0 -26.28 l-9.76 0 l0 -2.88 l22.56 0 l0 2.88 l-9.76 0 z M86.652 10.84 l3 0 l0 29.16 l-3.32 0 l-17.4 -24.8 l0 24.8 l-3.04 0 l0 -29.16 l3.56 0 l17.2 24.52 l0 -24.52 z M98.736 40 l0 -29.16 l18.24 0 l0 2.84 l-15.16 0 l0 10.08 l13.88 0 l0 2.84 l-13.88 0 l0 10.56 l15.32 0 l0 2.84 l-18.4 0 z M132.5 40.28 c-2.76 0 -5.4 -1.04 -7.12 -2.56 c-1.8 -1.56 -2.96 -3.64 -3.2 -5.68 l2.88 -0.8 c0.32 1.72 1.2 3.16 2.64 4.36 c1.4 1.2 3 1.8 4.8 1.8 c1.68 0 3.24 -0.4 4.48 -1.28 c1.24 -0.84 2.04 -2.28 2.04 -4.04 c0 -2.04 -1.08 -3.36 -2.44 -4.16 c-0.96 -0.56 -1.8 -0.8 -2.76 -1 l-3.84 -0.76 c-0.8 -0.16 -1.64 -0.44 -2.56 -0.84 c-0.92 -0.44 -1.72 -0.96 -2.4 -1.64 c-1.36 -1.32 -2.04 -3 -2.04 -5.04 c0 -1.6 0.44 -3.04 1.32 -4.28 c0.88 -1.28 2 -2.2 3.4 -2.88 c1.4 -0.64 2.88 -0.96 4.52 -0.96 c6.28 0 9.04 3.88 9.64 7 l-2.8 0.88 c-0.48 -2.08 -2.36 -5.04 -6.88 -5.04 c-3.12 -0.08 -6.16 2.12 -6.12 5.16 c0 2.24 1.4 4.04 4.24 4.6 l3.68 0.72 c2.48 0.48 4.4 1.32 5.68 2.56 c0.88 0.8 1.52 1.72 1.92 2.68 c0.4 1 0.6 1.88 0.6 2.68 c0.04 5.12 -4.28 8.64 -9.68 8.52 z M157.344 40.28 c-2.76 0 -5.4 -1.04 -7.12 -2.56 c-1.8 -1.56 -2.96 -3.64 -3.2 -5.68 l2.88 -0.8 c0.32 1.72 1.2 3.16 2.64 4.36 c1.4 1.2 3 1.8 4.8 1.8 c1.68 0 3.24 -0.4 4.48 -1.28 c1.24 -0.84 2.04 -2.28 2.04 -4.04 c0 -2.04 -1.08 -3.36 -2.44 -4.16 c-0.96 -0.56 -1.8 -0.8 -2.76 -1 l-3.84 -0.76 c-0.8 -0.16 -1.64 -0.44 -2.56 -0.84 c-0.92 -0.44 -1.72 -0.96 -2.4 -1.64 c-1.36 -1.32 -2.04 -3 -2.04 -5.04 c0 -1.6 0.44 -3.04 1.32 -4.28 c0.88 -1.28 2 -2.2 3.4 -2.88 c1.4 -0.64 2.88 -0.96 4.52 -0.96 c6.28 0 9.04 3.88 9.64 7 l-2.8 0.88 c-0.48 -2.08 -2.36 -5.04 -6.88 -5.04 c-3.12 -0.08 -6.16 2.12 -6.12 5.16 c0 2.24 1.4 4.04 4.24 4.6 l3.68 0.72 c2.48 0.48 4.4 1.32 5.68 2.56 c0.88 0.8 1.52 1.72 1.92 2.68 c0.4 1 0.6 1.88 0.6 2.68 c0.04 5.12 -4.28 8.64 -9.68 8.52 z"></path></g><g id="SvgjsG1647" featurekey="nameFeature-1" transform="matrix(1.846858626939968,0,0,1.846858626939968,58.306282966282765,195.57104639916676)" fill="#04946d"><path d="M16.56 40.32 c-4 0 -7.72 -1.56 -10.32 -4.12 c-1.28 -1.28 -2.32 -2.84 -3.08 -4.68 c-0.76 -1.88 -1.16 -3.88 -1.16 -6 c0 -2.16 0.4 -4.2 1.2 -6.08 s1.84 -3.48 3.16 -4.76 c2.68 -2.6 6.4 -4.16 10.32 -4.16 c3.08 0 5.88 0.92 7.76 2.24 c0.96 0.64 1.8 1.4 2.56 2.24 c1.48 1.72 2.28 3.44 2.72 5.12 l-2.92 1.04 c-0.24 -0.96 -0.64 -2 -1.72 -3.52 c-0.56 -0.76 -1.16 -1.44 -1.88 -2.04 s-1.64 -1.12 -2.8 -1.52 c-1.16 -0.44 -2.4 -0.64 -3.8 -0.64 c-3.04 0 -5.96 1.24 -8 3.28 c-2.08 2.08 -3.4 5.16 -3.4 8.6 c0 2.28 0.48 4.36 1.48 6.2 c0.96 1.84 2.32 3.28 4.12 4.32 c1.72 1.04 3.68 1.56 5.84 1.56 c2.68 0 5 -0.92 6.4 -2.04 c0.72 -0.56 1.36 -1.2 1.92 -2 c0.56 -0.76 0.96 -1.44 1.24 -2 c0.24 -0.56 0.48 -1.16 0.68 -1.76 l2.92 1.04 c-0.44 1.56 -1.2 3.16 -2.68 4.96 c-0.72 0.88 -1.6 1.68 -2.52 2.36 c-1.92 1.36 -4.84 2.36 -8.04 2.36 z M36.244 40 l0 -29.16 l3.08 0 l0 26.28 l13.84 0 l0 2.88 l-16.92 0 z M77.408 10.84 l3.08 0 l0 17.76 c0 3.68 -1 6.56 -2.88 8.6 c-1.92 2.04 -4.64 3.08 -8.12 3.08 c-3.44 0 -6.16 -1.04 -8.04 -3.12 c-1.92 -2.08 -2.88 -4.84 -2.88 -8.36 l0 -17.96 l3.04 0 l0 17.8 c0 3.08 0.88 5.44 2.32 6.76 c1.48 1.36 3.36 2 5.72 2 c2.48 0 4.4 -0.72 5.76 -2.24 c1.32 -1.52 2 -3.6 2 -6.36 l0 -17.96 z M100.012 40 l-10.88 0 l0 -29.16 l10.48 0 c5.28 -0.08 9.4 2.64 9.4 7.32 c0 0.68 -0.04 1.28 -0.4 2.4 c-0.16 0.56 -0.4 1.04 -0.72 1.52 c-0.6 0.96 -1.8 2.08 -3.32 2.76 c2.04 0.52 3.68 1.76 4.52 3.16 s1.2 2.8 1.2 4 c0 2.72 -1.16 4.84 -3.08 6.12 c-1.92 1.24 -4.4 1.88 -7.2 1.88 z M99.372 13.64 l-7.2 0 l0 10.16 l6.96 0 c2.28 0 3.96 -0.48 5.08 -1.48 s1.68 -2.24 1.68 -3.8 c0 -3.56 -3.2 -4.88 -6.52 -4.88 z M99.492 26.52 l-7.32 0 l0 10.68 l7.92 0 c3.16 0 7.08 -1.28 7.08 -5.4 c0 -2.52 -1.56 -3.92 -3.52 -4.6 c-1.36 -0.52 -2.68 -0.68 -4.16 -0.68 z"></path></g></svg>